<svg width="49" height="49" viewBox="0 0 49 49" fill="none" xmlns="http://www.w3.org/2000/svg">
<circle cx="24.5" cy="24.5" r="24.5" fill="#530054"/>
<path d="M33.0227 16H15.9773C14.8864 16 14 17.0449 14 18.331V30.669C14 31.9551 14.8864 33 15.9773 33H33.0227C34.1136 33 35 31.9551 35 30.669V18.331C35 17.0449 34.1136 16 33.0227 16ZM33.0227 17.4066C33.1932 17.4066 33.3295 17.4468 33.4659 17.5674L24.9773 23.6359C24.6705 23.8369 24.3295 23.8369 24.0227 23.6359L15.5341 17.5674C15.6705 17.487 15.8068 17.4066 15.9773 17.4066H33.0227ZM33.0227 31.5532H15.9773C15.5682 31.5532 15.1932 31.1513 15.1932 30.6288V18.974L23.375 24.8416C23.7159 25.0827 24.0909 25.2033 24.4659 25.2033C24.8409 25.2033 25.2159 25.0827 25.5568 24.8416L33.7386 18.974V30.6288C33.8068 31.1513 33.4318 31.5532 33.0227 31.5532Z" fill="white"/>
</svg>
