<svg width="49" height="49" viewBox="0 0 49 49" fill="none" xmlns="http://www.w3.org/2000/svg">
<circle cx="24.5" cy="24.5" r="24.5" fill="#530054"/>
<path d="M24.5 12.5078C19.0703 12.5078 14.6172 16.8047 14.6172 22.0391C14.6172 26.2187 20.5938 33.1328 23.1719 35.9453C23.5234 36.3359 23.9922 36.5312 24.5 36.5312C25.0078 36.5312 25.4766 36.3359 25.8281 35.9453C28.4062 33.1719 34.3828 26.2187 34.3828 22.0391C34.3828 16.7656 29.9297 12.5078 24.5 12.5078ZM24.8125 35.0078C24.6172 35.2031 24.3437 35.2031 24.1875 35.0078C22.2734 32.9375 15.9844 25.8281 15.9844 22.0391C15.9844 17.5078 19.8125 13.875 24.5 13.875C29.1875 13.875 33.0156 17.5469 33.0156 22.0391C33.0156 25.8281 26.7266 32.8984 24.8125 35.0078Z" fill="white"/>
<path d="M24.5 18.1328C22.1953 18.1328 20.2812 20.0078 20.2812 22.3516C20.2812 24.6563 22.1562 26.5703 24.5 26.5703C26.8437 26.5703 28.7187 24.6953 28.7187 22.3516C28.7187 20.0078 26.8047 18.1328 24.5 18.1328ZM24.5 25.1641C22.9375 25.1641 21.6484 23.875 21.6484 22.3125C21.6484 20.75 22.9375 19.4609 24.5 19.4609C26.0625 19.4609 27.3516 20.75 27.3516 22.3125C27.3516 23.875 26.0625 25.1641 24.5 25.1641Z" fill="white"/>
</svg>
